<mxfile host="app.diagrams.net" modified="2024-05-27T21:32:44.097Z" agent="Mozilla/5.0 (Windows NT 10.0; Win64; x64) AppleWebKit/537.36 (KHTML, like Gecko) Chrome/125.0.0.0 Safari/537.36" etag="UdvIinqU4fq7sIae9yR7" version="24.4.8" type="device">
  <diagram name="Página-1" id="5cf_HwEakQUTLddLkbR4">
    <mxGraphModel dx="1167" dy="619" grid="1" gridSize="10" guides="1" tooltips="1" connect="1" arrows="1" fold="1" page="1" pageScale="1" pageWidth="827" pageHeight="1169" background="#ffffff" math="0" shadow="0">
      <root>
        <mxCell id="0" />
        <mxCell id="1" parent="0" />
        <mxCell id="aL55YKmfiz-vRnXuxlaU-29" style="rounded=0;orthogonalLoop=1;jettySize=auto;html=1;exitX=0.5;exitY=0.5;exitDx=0;exitDy=0;exitPerimeter=0;entryX=0;entryY=0.5;entryDx=0;entryDy=0;" parent="1" source="aL55YKmfiz-vRnXuxlaU-5" target="aL55YKmfiz-vRnXuxlaU-17" edge="1">
          <mxGeometry relative="1" as="geometry">
            <mxPoint x="230" y="560" as="targetPoint" />
          </mxGeometry>
        </mxCell>
        <mxCell id="aL55YKmfiz-vRnXuxlaU-5" value="Paciente / Usuário&lt;div&gt;&lt;br&gt;&lt;/div&gt;" style="shape=umlActor;verticalLabelPosition=bottom;verticalAlign=top;html=1;" parent="1" vertex="1">
          <mxGeometry x="70" y="320" width="50" height="80" as="geometry" />
        </mxCell>
        <mxCell id="aL55YKmfiz-vRnXuxlaU-23" style="rounded=0;orthogonalLoop=1;jettySize=auto;html=1;exitX=0.5;exitY=0.5;exitDx=0;exitDy=0;exitPerimeter=0;entryX=1;entryY=0.5;entryDx=0;entryDy=0;" parent="1" source="aL55YKmfiz-vRnXuxlaU-9" target="aL55YKmfiz-vRnXuxlaU-20" edge="1">
          <mxGeometry relative="1" as="geometry" />
        </mxCell>
        <mxCell id="aL55YKmfiz-vRnXuxlaU-31" style="rounded=0;orthogonalLoop=1;jettySize=auto;html=1;exitX=0.5;exitY=0.5;exitDx=0;exitDy=0;exitPerimeter=0;entryX=1;entryY=0.5;entryDx=0;entryDy=0;" parent="1" source="aL55YKmfiz-vRnXuxlaU-9" target="aL55YKmfiz-vRnXuxlaU-19" edge="1">
          <mxGeometry relative="1" as="geometry" />
        </mxCell>
        <mxCell id="aL55YKmfiz-vRnXuxlaU-32" style="rounded=0;orthogonalLoop=1;jettySize=auto;html=1;exitX=0.5;exitY=0.5;exitDx=0;exitDy=0;exitPerimeter=0;entryX=1;entryY=0.5;entryDx=0;entryDy=0;" parent="1" source="aL55YKmfiz-vRnXuxlaU-9" target="aL55YKmfiz-vRnXuxlaU-18" edge="1">
          <mxGeometry relative="1" as="geometry" />
        </mxCell>
        <mxCell id="aL55YKmfiz-vRnXuxlaU-33" style="rounded=0;orthogonalLoop=1;jettySize=auto;html=1;exitX=0.5;exitY=0.5;exitDx=0;exitDy=0;exitPerimeter=0;entryX=1;entryY=0.5;entryDx=0;entryDy=0;" parent="1" source="aL55YKmfiz-vRnXuxlaU-9" target="aL55YKmfiz-vRnXuxlaU-21" edge="1">
          <mxGeometry relative="1" as="geometry" />
        </mxCell>
        <mxCell id="aL55YKmfiz-vRnXuxlaU-34" style="rounded=0;orthogonalLoop=1;jettySize=auto;html=1;exitX=0.5;exitY=0.5;exitDx=0;exitDy=0;exitPerimeter=0;entryX=1;entryY=0.5;entryDx=0;entryDy=0;" parent="1" source="aL55YKmfiz-vRnXuxlaU-9" target="aL55YKmfiz-vRnXuxlaU-17" edge="1">
          <mxGeometry relative="1" as="geometry" />
        </mxCell>
        <mxCell id="aL55YKmfiz-vRnXuxlaU-9" value="&lt;div&gt;Médico / Funcionário&lt;/div&gt;&lt;div&gt;&lt;br&gt;&lt;/div&gt;" style="shape=umlActor;verticalLabelPosition=bottom;verticalAlign=top;html=1;" parent="1" vertex="1">
          <mxGeometry x="670" y="340" width="50" height="80" as="geometry" />
        </mxCell>
        <mxCell id="aL55YKmfiz-vRnXuxlaU-10" value="" style="swimlane;startSize=0;" parent="1" vertex="1">
          <mxGeometry x="240" y="40" width="300" height="660" as="geometry" />
        </mxCell>
        <mxCell id="aL55YKmfiz-vRnXuxlaU-12" value="&lt;font style=&quot;font-size: 18px;&quot;&gt;MEDCONTROL&lt;/font&gt;&lt;div&gt;&lt;br&gt;&lt;/div&gt;" style="text;html=1;align=center;verticalAlign=middle;whiteSpace=wrap;rounded=0;" parent="aL55YKmfiz-vRnXuxlaU-10" vertex="1">
          <mxGeometry x="90" y="10" width="120" height="50" as="geometry" />
        </mxCell>
        <mxCell id="aL55YKmfiz-vRnXuxlaU-18" value="&lt;font style=&quot;font-size: 14px;&quot;&gt;Abrir prontuário&lt;/font&gt;" style="ellipse;whiteSpace=wrap;html=1;" parent="aL55YKmfiz-vRnXuxlaU-10" vertex="1">
          <mxGeometry x="75" y="290" width="150" height="80" as="geometry" />
        </mxCell>
        <mxCell id="aL55YKmfiz-vRnXuxlaU-20" value="&lt;font style=&quot;font-size: 14px;&quot;&gt;Cadastrar / Logar&lt;/font&gt;" style="ellipse;whiteSpace=wrap;html=1;" parent="aL55YKmfiz-vRnXuxlaU-10" vertex="1">
          <mxGeometry x="75" y="60" width="150" height="80" as="geometry" />
        </mxCell>
        <mxCell id="aL55YKmfiz-vRnXuxlaU-21" value="&lt;font style=&quot;font-size: 14px;&quot;&gt;Acessar prontuários&lt;/font&gt;&lt;div&gt;&lt;font style=&quot;font-size: 14px;&quot;&gt;gerais&lt;/font&gt;&lt;/div&gt;" style="ellipse;whiteSpace=wrap;html=1;" parent="aL55YKmfiz-vRnXuxlaU-10" vertex="1">
          <mxGeometry x="75" y="410" width="150" height="80" as="geometry" />
        </mxCell>
        <mxCell id="aL55YKmfiz-vRnXuxlaU-19" value="&lt;font style=&quot;font-size: 14px;&quot;&gt;Cadastrar paciente&lt;/font&gt;" style="ellipse;whiteSpace=wrap;html=1;" parent="aL55YKmfiz-vRnXuxlaU-10" vertex="1">
          <mxGeometry x="75" y="170" width="150" height="80" as="geometry" />
        </mxCell>
        <mxCell id="aL55YKmfiz-vRnXuxlaU-17" value="&lt;font style=&quot;font-size: 14px;&quot;&gt;Visualizar gráficos e índices&lt;/font&gt;" style="ellipse;whiteSpace=wrap;html=1;" parent="aL55YKmfiz-vRnXuxlaU-10" vertex="1">
          <mxGeometry x="75" y="520" width="150" height="80" as="geometry" />
        </mxCell>
        <mxCell id="aL55YKmfiz-vRnXuxlaU-27" value="Extends" style="endArrow=block;endSize=16;endFill=0;html=1;rounded=0;exitX=1;exitY=1;exitDx=0;exitDy=0;entryX=1;entryY=0;entryDx=0;entryDy=0;" parent="aL55YKmfiz-vRnXuxlaU-10" source="aL55YKmfiz-vRnXuxlaU-18" target="aL55YKmfiz-vRnXuxlaU-21" edge="1">
          <mxGeometry width="160" relative="1" as="geometry">
            <mxPoint x="249.99828090574695" y="360.0011357269112" as="sourcePoint" />
            <mxPoint x="249.99828090574695" y="433.09886427308896" as="targetPoint" />
          </mxGeometry>
        </mxCell>
      </root>
    </mxGraphModel>
  </diagram>
</mxfile>
